<?xml version="1.0" encoding="utf-8"?>
<!-- Generator: Adobe Illustrator 21.0.0, SVG Export Plug-In . SVG Version: 6.00 Build 0)  -->
<svg version="1.1" id="Layer_1" xmlns="http://www.w3.org/2000/svg" xmlns:xlink="http://www.w3.org/1999/xlink" x="0px" y="0px"
	 viewBox="0 0 48 48" style="enable-background:new 0 0 48 48;" xml:space="preserve">
<style type="text/css">
	.st0{fill:none;stroke:#000000;stroke-width:2;stroke-linecap:round;stroke-linejoin:round;}
</style>
<title>Asset 39</title>
<g id="Layer_2">
	<g id="Layer_1-2">
		<g id="automated_report_card">
			<path class="st0" d="M2.5,44.8h26.7c0.8,0,1.5-0.7,1.5-1.5V4.7c0-0.8-0.7-1.5-1.5-1.5H10.6L1,12.9v30.4C1,44.1,1.7,44.8,2.5,44.8
				C2.5,44.8,2.5,44.8,2.5,44.8z"/>
			<path class="st0" d="M1,12.9h9.6c0.4,0,0.7-0.3,0.7-0.7v-3"/>
			<polyline class="st0" points="8.4,32.2 14.4,18.1 20.3,32.2 			"/>
			<line class="st0" x1="10.6" y1="27.7" x2="18.1" y2="27.7"/>
			<line class="st0" x1="23.3" y1="18.1" x2="23.3" y2="24"/>
			<line class="st0" x1="20.3" y1="21" x2="26.2" y2="21"/>
			<path class="st0" d="M30.7,40.3h2.2c0.4,0,0.7-0.3,0.7-0.7l0,0v-1.1c0-0.3,0.2-0.6,0.5-0.7l3.9-1.6c0.3-0.1,0.6-0.1,0.8,0.2
				l0.8,0.8c0.3,0.3,0.7,0.3,1,0l3.2-3.2c0.3-0.3,0.3-0.7,0-1L43,32.2c-0.2-0.2-0.3-0.5-0.2-0.8l1.6-3.9c0.1-0.3,0.4-0.5,0.7-0.5
				h1.1c0.4,0,0.8-0.3,0.8-0.7c0,0,0,0,0,0v-4.5c0-0.4-0.3-0.7-0.7-0.7l0,0h-1.1c-0.3,0-0.6-0.2-0.7-0.5l-1.6-3.9
				c-0.1-0.3-0.1-0.6,0.1-0.8l0.8-0.8c0.3-0.3,0.3-0.7,0-1l-3.1-3.2c-0.3-0.3-0.7-0.3-1,0l-0.8,0.8c-0.2,0.2-0.5,0.3-0.8,0.2l-4-1.6
				c-0.3-0.1-0.5-0.4-0.5-0.7v-1c0-0.4-0.3-0.7-0.7-0.7l0,0h-2.2"/>
			<path class="st0" d="M34.4,16.7c4,2,5.6,7,3.6,11c-0.8,1.5-2,2.8-3.6,3.6"/>
		</g>
	</g>
</g>
</svg>
