<?xml version="1.0" encoding="utf-8"?>
<!-- Generator: Adobe Illustrator 21.0.0, SVG Export Plug-In . SVG Version: 6.00 Build 0)  -->
<svg version="1.1" id="Layer_1" xmlns="http://www.w3.org/2000/svg" xmlns:xlink="http://www.w3.org/1999/xlink" x="0px" y="0px"
	 viewBox="0 0 48 48" style="enable-background:new 0 0 48 48;" xml:space="preserve">
<style type="text/css">
	.st0{fill:none;stroke:#000000;stroke-width:2;stroke-linecap:round;stroke-linejoin:round;}
</style>
<title>Asset 5</title>
<g id="Layer_2">
	<g id="Layer_1-2">
		<g id="academic_grading">
			<path class="st0" d="M40.3,1H7.7C6.9,1,6.2,1.7,6.2,2.5v43c0,0.8,0.6,1.5,1.4,1.5c0,0,0,0,0,0h24.5l9.7-9.7V2.5
				C41.8,1.7,41.2,1,40.3,1C40.4,1,40.3,1,40.3,1z"/>
			<path class="st0" d="M41.8,37.3h-9.6c-0.4,0-0.7,0.3-0.7,0.7l0,0v3"/>
			<polyline class="st0" points="14.4,31.4 21,15.8 27.7,31.4 			"/>
			<line class="st0" x1="17.3" y1="25.5" x2="24.7" y2="25.5"/>
			<line class="st0" x1="30.7" y1="15.8" x2="30.7" y2="21.8"/>
			<line class="st0" x1="27.7" y1="18.8" x2="33.6" y2="18.8"/>
		</g>
	</g>
</g>
</svg>
