<?xml version="1.0" encoding="utf-8"?>
<!-- Generator: Adobe Illustrator 19.2.1, SVG Export Plug-In . SVG Version: 6.00 Build 0)  -->
<svg version="1.1" id="Layer_1" xmlns="http://www.w3.org/2000/svg" xmlns:xlink="http://www.w3.org/1999/xlink" x="0px" y="0px"
	 viewBox="0 0 44 44" style="enable-background:new 0 0 44 44;" xml:space="preserve">
<g>
	<path d="M41,19c-0.6,0-1,0.4-1,1v4c0,0.6,0.4,1,1,1s1-0.4,1-1v-4C42,19.4,41.6,19,41,19z"/>
	<path d="M14,28c0.6,0,1-0.4,1-1v-1c0-1.7-1.3-3-3-3s-3,1.3-3,3H4v-8h3c0,1.7,1.3,3,3,3c0.6,0,1-0.4,1-1s-0.4-1-1-1
		c-0.6,0-1-0.4-1-1v-2c0-0.6,0.4-1,1-1s1,0.4,1,1v1c0,0.6,0.4,1,1,1s1-0.4,1-1v-1c0-1.7-1.3-3-3-3s-3,1.3-3,3H3c-0.6,0-1,0.4-1,1v10
		c0,0.6,0.4,1,1,1h6c0,1.7,1.3,3,3,3c0.6,0,1-0.4,1-1s-0.4-1-1-1c-0.6,0-1-0.4-1-1v-2c0-0.6,0.4-1,1-1s1,0.4,1,1v1
		C13,27.6,13.4,28,14,28z"/>
	<path d="M15,17c0,0.6,0.4,1,1,1h3c0,1.7,1.3,3,3,3c0.6,0,1-0.4,1-1s-0.4-1-1-1c-0.6,0-1-0.4-1-1v-2c0-0.6,0.4-1,1-1s1,0.4,1,1v1
		c0,0.6,0.4,1,1,1s1-0.4,1-1v-1c0-1.7-1.3-3-3-3s-3,1.3-3,3h-3C15.4,16,15,16.4,15,17z"/>
	<path d="M19,33c-1.7,0-3,1.3-3,3H4v-6c0-0.6-0.4-1-1-1s-1,0.4-1,1v7c0,0.6,0.4,1,1,1h13c0,1.7,1.3,3,3,3c0.6,0,1-0.4,1-1
		s-0.4-1-1-1c-0.6,0-1-0.4-1-1v-2c0-0.6,0.4-1,1-1s1,0.4,1,1v1c0,0.6,0.4,1,1,1s1-0.4,1-1v-1C22,34.3,20.7,33,19,33z"/>
	<path d="M42,37V27c0-0.6-0.4-1-1-1H26c0-1.7-1.3-3-3-3s-3,1.3-3,3h-2c-0.6,0-1,0.4-1,1s0.4,1,1,1h2c0,1.7,1.3,3,3,3
		c0.6,0,1-0.4,1-1s-0.4-1-1-1c-0.6,0-1-0.4-1-1v-2c0-0.6,0.4-1,1-1s1,0.4,1,1v1c0,0.6,0.4,1,1,1h15v8h-5c0-1.7-1.3-3-3-3s-3,1.3-3,3
		h-4c-0.6,0-1,0.4-1,1s0.4,1,1,1h4c0,1.7,1.3,3,3,3c0.6,0,1-0.4,1-1s-0.4-1-1-1c-0.6,0-1-0.4-1-1v-2c0-0.6,0.4-1,1-1s1,0.4,1,1v1
		c0,0.6,0.4,1,1,1h7C41.6,38,42,37.6,42,37z"/>
	<path d="M2,7v7c0,0.6,0.4,1,1,1s1-0.4,1-1V8h8c0,1.7,1.3,3,3,3c0.6,0,1-0.4,1-1s-0.4-1-1-1c-0.6,0-1-0.4-1-1V6c0-0.6,0.4-1,1-1
		s1,0.4,1,1v1c0,0.6,0.4,1,1,1s1-0.4,1-1V6c0-1.7-1.3-3-3-3s-3,1.3-3,3H3C2.4,6,2,6.4,2,7z"/>
	<path d="M21,8h5c0,1.7,1.3,3,3,3c0.6,0,1-0.4,1-1s-0.4-1-1-1c-0.6,0-1-0.4-1-1V6c0-0.6,0.4-1,1-1s1,0.4,1,1v1c0,0.6,0.4,1,1,1h9v8
		h-4c0-1.7-1.3-3-3-3s-3,1.3-3,3h-2c-0.6,0-1,0.4-1,1s0.4,1,1,1h2c0,1.7,1.3,3,3,3c0.6,0,1-0.4,1-1s-0.4-1-1-1c-0.6,0-1-0.4-1-1v-2
		c0-0.6,0.4-1,1-1s1,0.4,1,1v1c0,0.6,0.4,1,1,1h6c0.6,0,1-0.4,1-1V7c0-0.6-0.4-1-1-1h-9c0-1.7-1.3-3-3-3s-3,1.3-3,3h-5
		c-0.6,0-1,0.4-1,1S20.4,8,21,8z"/>
	<path d="M43,42h-1v-2c0-0.6-0.4-1-1-1s-1,0.4-1,1v2h-1c-0.6,0-1,0.4-1,1s0.4,1,1,1h4c0.6,0,1-0.4,1-1S43.6,42,43,42z"/>
	<path d="M5,42H4v-2c0-0.6-0.4-1-1-1s-1,0.4-1,1v2H1c-0.6,0-1,0.4-1,1s0.4,1,1,1h4c0.6,0,1-0.4,1-1S5.6,42,5,42z"/>
	<path d="M39,2h1v2c0,0.6,0.4,1,1,1s1-0.4,1-1V2h1c0.6,0,1-0.4,1-1s-0.4-1-1-1h-4c-0.6,0-1,0.4-1,1S38.4,2,39,2z"/>
	<path d="M1,2h1v2c0,0.6,0.4,1,1,1s1-0.4,1-1V2h1c0.6,0,1-0.4,1-1S5.6,0,5,0H1C0.4,0,0,0.4,0,1S0.4,2,1,2z"/>
</g>
</svg>
