<?xml version="1.0" encoding="utf-8"?>
<!-- Generator: Adobe Illustrator 20.0.0, SVG Export Plug-In . SVG Version: 6.00 Build 0)  -->
<svg version="1.1" id="Layer_1" xmlns="http://www.w3.org/2000/svg" xmlns:xlink="http://www.w3.org/1999/xlink" x="0px" y="0px"
	 viewBox="0 0 64 64" style="enable-background:new 0 0 64 64;" xml:space="preserve">
<style type="text/css">
	.st0{fill:#1D1F21;}
</style>
<title>Asset 3</title>
<g id="Layer_2">
	<g id="Layer_1-2">
		<g id="_Group_">
			<g id="_Group_2">
				<g id="_Group_3">
					<rect x="19" y="58" class="st0" width="26" height="2"/>
				</g>
				<g id="_Group_4">
					<path class="st0" d="M59.1,50H4.9C2.2,50,0,47.8,0,45.1V8.9C0,6.2,2.2,4,4.9,4c0,0,0,0,0,0h54.2C61.8,4,64,6.2,64,8.9v36.2
						C64,47.8,61.8,50,59.1,50z M4.9,6C3.3,6,2,7.3,2,8.9v36.2C2,46.7,3.3,48,4.9,48h54.2c1.6,0,2.9-1.3,2.9-2.9V8.9
						C62,7.3,60.7,6,59.1,6H4.9z"/>
				</g>
				<g id="_Group_5">
					<rect x="3" y="41" class="st0" width="58" height="2"/>
				</g>
				<g id="_Group_6">
					<rect x="30" y="44" class="st0" width="4" height="2"/>
				</g>
				<g id="_Group_7">
					<path class="st0" d="M42.3,60H21.7l3.6-12h13.5L42.3,60z M24.3,58h15.3l-2.4-8H26.7L24.3,58z"/>
				</g>
			</g>
			<g id="_Group_8">
				<g id="_Group_9">
					<g id="_Group_10">
						<g id="_Group_11">
							<polygon class="st0" points="50,34 43,34 43,32 48,32 48,27 50,27 							"/>
						</g>
						<g id="_Group_12">
							<rect x="25.4" y="32" class="st0" width="13.2" height="2"/>
						</g>
						<g id="_Group_13">
							<polygon class="st0" points="21,34 14,34 14,27 16,27 16,32 21,32 							"/>
						</g>
						<g id="_Group_14">
							<polygon class="st0" points="16,21 14,21 14,14 21,14 21,16 16,16 							"/>
						</g>
						<g id="_Group_15">
							<rect x="25.4" y="14" class="st0" width="13.2" height="2"/>
						</g>
						<g id="_Group_16">
							<polygon class="st0" points="50,21 48,21 48,16 43,16 43,14 50,14 							"/>
						</g>
					</g>
				</g>
			</g>
			<g id="_Group_17">
				<g id="_Group_18">
					<g id="_Group_19">
						<polygon class="st0" points="24.5,30.3 22.3,21.8 20,30.3 18,29.7 21.3,17.7 23.2,17.7 26.5,29.7 						"/>
					</g>
					<g id="_Group_20">
						<rect x="20.6" y="24.5" class="st0" width="4.1" height="2"/>
					</g>
				</g>
				<g id="_Group_21">
					<g id="_Group_22">
						<path class="st0" d="M31.4,30h-2V17.8h5.1c1.4,0,2.6,1.1,2.6,2.5V24c0,1.4-1.2,2.5-2.6,2.5h-3.1V30z M31.4,24.5h3.1
							c0.3,0,0.6-0.2,0.6-0.5v-3.8c0-0.3-0.3-0.5-0.6-0.5h-3.1V24.5z"/>
					</g>
				</g>
				<g id="_Group_23">
					<g id="_Group_24">
						<rect x="40.1" y="17.8" class="st0" width="4.9" height="2"/>
					</g>
					<g id="_Group_25">
						<rect x="40.1" y="28.3" class="st0" width="4.9" height="2"/>
					</g>
					<g id="_Group_26">
						<rect x="41.6" y="18.8" class="st0" width="2" height="10.5"/>
					</g>
				</g>
			</g>
			<g id="_Group_27">
				<g id="_Group_28">
					<g id="_Group_29">
						<g id="_Group_30">
							<rect x="52" y="11" class="st0" width="2" height="2"/>
						</g>
						<g id="_Group_31">
							<path class="st0" d="M50.1,13h-1.9v-2h1.9V13z M46.3,13h-1.9v-2h1.9V13z M42.5,13h-1.9v-2h1.9V13z M38.7,13h-1.9v-2h1.9V13z
								 M34.9,13H33v-2h1.9L34.9,13z M31,13h-1.9v-2H31V13z M27.2,13h-1.9v-2h1.9V13z M23.4,13h-1.9v-2h1.9V13z M19.6,13h-1.9v-2
								h1.9V13z M15.8,13h-1.9v-2h1.9L15.8,13z"/>
						</g>
						<g id="_Group_32">
							<rect x="10" y="11" class="st0" width="2" height="2"/>
						</g>
						<g id="_Group_33">
							<path class="st0" d="M12,33h-2v-2h2V33z M12,29h-2v-2h2V29z M12,25h-2v-2h2V25z M12,21h-2v-2h2V21z M12,17h-2v-2h2V17z"/>
						</g>
						<g id="_Group_34">
							<rect x="10" y="35" class="st0" width="2" height="2"/>
						</g>
						<g id="_Group_35">
							<path class="st0" d="M50.1,37h-1.9v-2h1.9V37z M46.3,37h-1.9v-2h1.9V37z M42.5,37h-1.9v-2h1.9V37z M38.7,37h-1.9v-2h1.9V37z
								 M34.9,37H33v-2h1.9L34.9,37z M31,37h-1.9v-2H31V37z M27.2,37h-1.9v-2h1.9V37z M23.4,37h-1.9v-2h1.9V37z M19.6,37h-1.9v-2
								h1.9V37z M15.8,37h-1.9v-2h1.9L15.8,37z"/>
						</g>
						<g id="_Group_36">
							<rect x="52" y="35" class="st0" width="2" height="2"/>
						</g>
						<g id="_Group_37">
							<path class="st0" d="M54,33h-2v-2h2V33z M54,29h-2v-2h2V29z M54,25h-2v-2h2V25z M54,21h-2v-2h2V21z M54,17h-2v-2h2V17z"/>
						</g>
					</g>
				</g>
			</g>
			<g id="_Group_38">
				<rect x="58" y="7" class="st0" width="2" height="33"/>
			</g>
			<g id="_Group_39">
				<rect x="4" y="7" class="st0" width="2" height="33"/>
			</g>
		</g>
	</g>
</g>
</svg>
