<?xml version="1.0" encoding="utf-8"?>
<!-- Generator: Adobe Illustrator 16.0.0, SVG Export Plug-In . SVG Version: 6.00 Build 0)  -->
<!DOCTYPE svg PUBLIC "-//W3C//DTD SVG 1.1//EN" "http://www.w3.org/Graphics/SVG/1.1/DTD/svg11.dtd">
<svg version="1.1" xmlns="http://www.w3.org/2000/svg" xmlns:xlink="http://www.w3.org/1999/xlink" x="0px" y="0px" width="170px"
	 height="170px" viewBox="0 0 170 170" enable-background="new 0 0 170 170" xml:space="preserve">
<g id="Background">
</g>
<g id="Circle">
	<g>
		<path fill="#FFFFFF" d="M85,170c-46.869,0-85-38.131-85-85S38.131,0,85,0s85,38.131,85,85S131.869,170,85,170z"/>
	</g>
</g>
<g id="TEXT">
</g>
<g id="Icons">
	<g>
		<g>
			<path fill="none" stroke="#282D33" stroke-width="4" d="M93.829,68.721c-0.003-11.655-9.464-21.116-21.127-21.128
				c-11.666,0-21.115,9.469-21.123,21.117c0.008,11.671,9.46,21.135,21.128,21.131C84.373,89.847,93.827,80.384,93.829,68.721z"/>
			<path fill="none" stroke="#282D33" stroke-width="4" d="M82.305,68.722c-0.001-2.025-0.628-3.904-1.7-5.453
				c-1.732-2.504-4.625-4.146-7.9-4.149c-5.302,0-9.598,4.303-9.602,9.596c0.006,5.306,4.301,9.605,9.604,9.604
				C78.007,78.321,82.304,74.021,82.305,68.722z"/>
			<g>
				<g>
					<polyline fill="none" stroke="#282D33" stroke-width="4" points="111.755,68.015 115.374,60.771 129.899,60.769 
						126.274,68.016 					"/>
					<polyline fill="none" stroke="#282D33" stroke-width="4" points="111.755,68.015 115.376,75.259 129.897,75.259 
						126.274,68.016 					"/>
				</g>
				<line fill="none" stroke="#282D33" stroke-width="4" stroke-linecap="round" x1="73.401" y1="68.07" x2="129.327" y2="68.071"/>
			</g>
		</g>
		<g>
			<path fill="none" stroke="#282D33" stroke-width="4" d="M56.7,108.756h31.846c0.221-3.012,0.896-6.93,2.795-9.45
				c11.749-15.131,12.502-29.546,12.502-30.565c0-17.233-13.961-31.192-31.194-31.192S41.457,51.507,41.457,68.74
				c0,1.02,0.731,15.425,12.497,30.565C55.845,101.826,56.497,105.744,56.7,108.756z"/>
			<g>
				<line fill="none" stroke="#282D33" stroke-width="4" x1="52.368" y1="109.124" x2="92.933" y2="109.124"/>
				<line fill="none" stroke="#282D33" stroke-width="4" x1="52.368" y1="117.004" x2="92.933" y2="117.004"/>
				<line fill="none" stroke="#282D33" stroke-width="4" x1="52.368" y1="124.885" x2="92.933" y2="124.885"/>
				<line fill="none" stroke="#282D33" stroke-width="4" x1="57.884" y1="132.765" x2="87.416" y2="132.765"/>
				<line fill="none" stroke="#282D33" stroke-width="4" x1="57.075" y1="124.517" x2="57.075" y2="109.543"/>
			</g>
		</g>
	</g>
</g>
</svg>
