<svg xmlns="http://www.w3.org/2000/svg" viewBox="0 0 48 48"><defs><style>.cls-1{fill:#424143;}</style></defs><title>Asset 11</title><g id="Layer_2" data-name="Layer 2"><g id="Layer_1-2" data-name="Layer 1"><path class="cls-1" d="M24,30.82A6.82,6.82,0,1,1,30.82,24,6.83,6.83,0,0,1,24,30.82Zm0-12A5.21,5.21,0,1,0,29.21,24,5.21,5.21,0,0,0,24,18.79Z"/><path class="cls-1" d="M24,6.77a3.38,3.38,0,1,1,3.38-3.38A3.39,3.39,0,0,1,24,6.77Zm0-5.15a1.77,1.77,0,1,0,1.77,1.77A1.77,1.77,0,0,0,24,1.61Z"/><path class="cls-1" d="M3.38,27.38A3.38,3.38,0,1,1,6.77,24,3.39,3.39,0,0,1,3.38,27.38Zm0-5.15A1.77,1.77,0,1,0,5.15,24,1.77,1.77,0,0,0,3.38,22.23Z"/><path class="cls-1" d="M24,48a3.38,3.38,0,1,1,3.38-3.38A3.39,3.39,0,0,1,24,48Zm0-5.15a1.77,1.77,0,1,0,1.77,1.77A1.77,1.77,0,0,0,24,42.85Z"/><path class="cls-1" d="M44.62,27.38A3.38,3.38,0,1,1,48,24,3.39,3.39,0,0,1,44.62,27.38Zm0-5.15A1.77,1.77,0,1,0,46.39,24,1.77,1.77,0,0,0,44.62,22.23Z"/><path class="cls-1" d="M12,15.36A3.38,3.38,0,1,1,15.36,12,3.39,3.39,0,0,1,12,15.36Zm0-5.15A1.77,1.77,0,1,0,13.74,12,1.77,1.77,0,0,0,12,10.2Z"/><path class="cls-1" d="M12,39.41A3.38,3.38,0,1,1,15.36,36,3.39,3.39,0,0,1,12,39.41Zm0-5.15A1.77,1.77,0,1,0,13.74,36,1.77,1.77,0,0,0,12,34.26Z"/><path class="cls-1" d="M36,39.41A3.38,3.38,0,1,1,39.41,36,3.39,3.39,0,0,1,36,39.41Zm0-5.15A1.77,1.77,0,1,0,37.8,36,1.77,1.77,0,0,0,36,34.26Z"/><path class="cls-1" d="M36,15.36A3.38,3.38,0,1,1,39.41,12,3.39,3.39,0,0,1,36,15.36Zm0-5.15A1.77,1.77,0,1,0,37.8,12,1.77,1.77,0,0,0,36,10.2Z"/><path class="cls-1" d="M18,24.81H6a.81.81,0,1,1,0-1.61H18a.81.81,0,1,1,0,1.61Z"/><path class="cls-1" d="M42,24.81H30a.81.81,0,1,1,0-1.61H42a.81.81,0,0,1,0,1.61Z"/><path class="cls-1" d="M24,42.85a.81.81,0,0,1-.81-.81V30a.81.81,0,1,1,1.61,0V42A.81.81,0,0,1,24,42.85Z"/><path class="cls-1" d="M24,18.79a.81.81,0,0,1-.81-.81V6a.81.81,0,1,1,1.61,0V18A.81.81,0,0,1,24,18.79Z"/><path class="cls-1" d="M28.3,20.51a.81.81,0,0,1-.57-1.38l6-6a.81.81,0,0,1,1.14,1.14l-6,6A.81.81,0,0,1,28.3,20.51Z"/><path class="cls-1" d="M19.7,20.51a.81.81,0,0,1-.57-.24l-6-6a.81.81,0,0,1,1.14-1.14l6,6a.81.81,0,0,1-.57,1.38Z"/><path class="cls-1" d="M34.31,35.11a.81.81,0,0,1-.57-.24l-6-6a.81.81,0,0,1,1.14-1.14l6,6a.81.81,0,0,1-.57,1.38Z"/><path class="cls-1" d="M13.69,35.11a.81.81,0,0,1-.57-1.38l6-6a.81.81,0,0,1,1.14,1.14l-6,6A.81.81,0,0,1,13.69,35.11Z"/></g></g></svg>