<?xml version="1.0" encoding="utf-8"?>
<!-- Generator: Adobe Illustrator 21.0.0, SVG Export Plug-In . SVG Version: 6.00 Build 0)  -->
<svg version="1.1" id="Layer_1" xmlns="http://www.w3.org/2000/svg" xmlns:xlink="http://www.w3.org/1999/xlink" x="0px" y="0px"
	 viewBox="0 0 48 48" style="enable-background:new 0 0 48 48;" xml:space="preserve">
<style type="text/css">
	.st0{fill:#424143;}
</style>
<title>Asset 30</title>
<g id="Layer_2">
	<g id="Layer_1-2">
		<path class="st0" d="M29.9,37h-0.7c-10-0.3-17.8-8.7-17.5-18.7c0.2-4.8,2.2-9.4,5.8-12.7c7.3-6.8,18.8-6.4,25.6,0.9
			s6.4,18.8-0.9,25.6l0,0C38.9,35.3,34.5,37,29.9,37z M29.9,2.5c-9.1,0-16.4,7.4-16.4,16.4c0,9.1,7.4,16.4,16.4,16.4
			c9.1,0,16.4-7.4,16.4-16.4c0-4.2-1.6-8.2-4.4-11.2C38.8,4.4,34.5,2.5,29.9,2.5L29.9,2.5z"/>
		<path class="st0" d="M5.8,47.2c-0.2,0-0.5-0.1-0.6-0.3l-4.9-5.3c-0.3-0.3-0.3-0.9,0-1.2l9.3-8.7c0.3-0.3,0.9-0.3,1.2,0
			c0,0,0,0,0,0l5,5.3c0.3,0.3,0.3,0.9,0,1.2c0,0,0,0,0,0l-9.3,8.7C6.3,47.1,6,47.2,5.8,47.2z M2.1,41.1l3.8,4.1l8.1-7.5l-3.8-4.1
			L2.1,41.1z"/>
		<path class="st0" d="M12.6,35.9c-0.5,0-0.9-0.4-0.9-0.8c0-0.2,0.1-0.5,0.3-0.6l4.6-4.3c0.3-0.3,0.9-0.3,1.2,0
			c0.3,0.3,0.3,0.9,0,1.2l0,0l-4.6,4.3C13.1,35.8,12.9,35.9,12.6,35.9z"/>
		<path class="st0" d="M29.4,33.4L29.4,33.4c-8-0.3-14.2-7-14-15c0.1-3.8,1.8-7.4,4.6-10c5.9-5.4,15-5.1,20.5,0.8
			c2.6,2.8,4,6.5,3.9,10.3c0,0.5-0.4,0.8-0.9,0.8c-0.5,0-0.8-0.4-0.8-0.9l0,0c0.3-7-5.3-13-12.3-13.2s-13,5.3-13.2,12.3
			c-0.3,7,5.3,13,12.3,13.2c0,0,0,0,0,0c0.5,0,0.8,0.4,0.8,0.9C30.3,33,29.9,33.4,29.4,33.4L29.4,33.4z"/>
		<path class="st0" d="M24.4,25.4h-3.6c-0.5,0-0.9-0.4-0.9-0.9v-9.1c0-0.5,0.4-0.9,0.9-0.9h3.6c0.5,0,0.9,0.4,0.9,0.9v9.1
			C25.3,25,24.9,25.4,24.4,25.4C24.5,25.4,24.5,25.4,24.4,25.4z M21.7,23.7h1.9v-7.4h-1.9V23.7z"/>
		<path class="st0" d="M31.7,25.4h-3.6c-0.5,0-0.9-0.4-0.9-0.9V10.1c0-0.5,0.4-0.9,0.9-0.9h3.6c0.5,0,0.9,0.4,0.9,0.9v0v14.5
			C32.6,25,32.2,25.4,31.7,25.4z M29,23.7h1.9V10.9H29V23.7z"/>
		<path class="st0" d="M39,25.4h-3.6c-0.5,0-0.9-0.4-0.9-0.9l0,0V13.6c0-0.5,0.4-0.9,0.9-0.9l0,0H39c0.5,0,0.9,0.4,0.9,0.9v0v10.9
			C39.8,25,39.4,25.4,39,25.4C39,25.4,39,25.4,39,25.4z M36.2,23.7h1.9v-9.2h-1.9V23.7z"/>
	</g>
</g>
</svg>
