<svg xmlns="http://www.w3.org/2000/svg" viewBox="0 0 48 48"><defs><style>.cls-1{fill:none;stroke:#000;stroke-linecap:round;stroke-linejoin:round;stroke-width:2px;}</style></defs><title>Asset 30</title><g id="Layer_2" data-name="Layer 2"><g id="Layer_1-2" data-name="Layer 1"><g id="online_tools_" data-name="online tools
"><path class="cls-1" d="M44.77,39.58V18.06a3,3,0,0,0-3-3H40.32"/><line class="cls-1" x1="18.06" y1="15.1" x2="28.45" y2="15.1"/><path class="cls-1" d="M3.23,39.58V18.06a3,3,0,0,1,3-3H7.68"/><path class="cls-1" d="M42.55,47H5.45A4.45,4.45,0,0,1,1,42.55H18.81V44H29.19V42.55H47A4.45,4.45,0,0,1,42.55,47Z"/><g id="tools_" data-name="tools
"><path class="cls-1" d="M36.61,3.23,32.9,11.39V36.73A2.11,2.11,0,0,0,35,38.84h3.21a2.11,2.11,0,0,0,2.11-2.11V11.39Z"/><line class="cls-1" x1="35.87" y1="11.39" x2="40.32" y2="11.39"/><line class="cls-1" x1="35.87" y1="5.45" x2="37.35" y2="5.45"/><line class="cls-1" x1="35.87" y1="32.9" x2="40.32" y2="32.9"/><line class="cls-1" x1="7.68" y1="11.39" x2="9.9" y2="11.39"/><polyline class="cls-1" points="7.68 32.16 7.68 1 18.07 1 18.07 21.77"/><line class="cls-1" x1="7.68" y1="18.81" x2="11.39" y2="18.81"/><line class="cls-1" x1="7.68" y1="25.48" x2="9.9" y2="25.48"/><circle class="cls-1" cx="12.87" cy="6.19" r="1.48"/><polyline class="cls-1" points="29.19 25.72 24 20.29 7.68 37.35 29.19 37.35"/><polygon class="cls-1" points="18.81 32.9 29.19 32.9 24 27.71 18.81 32.9"/></g></g></g></g></svg>