<svg xmlns="http://www.w3.org/2000/svg" viewBox="0 0 48 48"><defs><style>.cls-1{fill:none;stroke:#000;stroke-linecap:round;stroke-linejoin:round;stroke-width:2px;}</style></defs><title>Asset 3</title><g id="Layer_2" data-name="Layer 2"><g id="Layer_1-2" data-name="Layer 1"><g id="tools-engineering-tech_draw_" data-name="tools-engineering-tech draw
"><polyline class="cls-1" points="29.19 41.81 32.16 41.81 29.19 38.84"/><polyline class="cls-1" points="29.19 47 47 47 29.19 29.19"/><polyline class="cls-1" points="11.39 36.61 1 47 11.39 47"/><line class="cls-1" x1="47" y1="41.06" x2="41" y2="15.14"/><line class="cls-1" x1="37.22" y1="19.37" x2="41.77" y2="35.83"/><line class="cls-1" x1="33.65" y1="22.52" x2="32.53" y2="26.59"/><line class="cls-1" x1="28.93" y1="22.99" x2="30.74" y2="15.14"/><path class="cls-1" d="M33.65,9.16V3.23A2.23,2.23,0,0,1,35.87,1h0A2.23,2.23,0,0,1,38.1,3.23V9.16"/><circle class="cls-1" cx="35.87" cy="14.35" r="1.48"/><circle class="cls-1" cx="35.87" cy="14.35" r="5.19"/><path class="cls-1" d="M20.29,6.94l-4.45,8.9V44a3,3,0,0,0,3,3h3a3,3,0,0,0,3-3V15.84Z"/><line class="cls-1" x1="18.81" y1="16.58" x2="24.74" y2="16.58"/><line class="cls-1" x1="19.55" y1="8.42" x2="21.03" y2="8.42"/><line class="cls-1" x1="20.29" y1="16.58" x2="20.29" y2="41.81"/><line class="cls-1" x1="18.81" y1="41.81" x2="24.74" y2="41.81"/><line class="cls-1" x1="1" y1="17.32" x2="3.23" y2="17.32"/><polyline class="cls-1" points="1 41.06 1 3.23 11.39 3.23 11.39 30.68"/><line class="cls-1" x1="1" y1="23.26" x2="3.97" y2="23.26"/><line class="cls-1" x1="1" y1="29.19" x2="3.23" y2="29.19"/><line class="cls-1" x1="1" y1="35.13" x2="3.97" y2="35.13"/><circle class="cls-1" cx="6.19" cy="9.16" r="2.23"/></g></g></g></svg>