<svg xmlns="http://www.w3.org/2000/svg" viewBox="0 0 48 48"><defs><style>.cls-1{fill:none;stroke:#000;stroke-linecap:round;stroke-linejoin:round;stroke-width:2px;}</style></defs><title>Asset 36</title><g id="Layer_2" data-name="Layer 2"><g id="Layer_1-2" data-name="Layer 1"><g id="send_of_materials_" data-name="send of materials
"><g id="_Grupo_" data-name="&lt;Grupo&gt;"><line class="cls-1" x1="24" y1="25.48" x2="41.81" y2="21.03"/><polyline class="cls-1" points="41.81 29.19 41.81 40.36 24 47 24 34.39"/><polyline class="cls-1" points="24 25.48 29.19 32.9 47 26.97 41.81 21.03 34.39 19.55"/><line class="cls-1" x1="24" y1="25.48" x2="6.19" y2="21.03"/><polyline class="cls-1" points="6.19 29.19 6.19 40.36 24 47"/><polyline class="cls-1" points="9.42 29.77 1 26.97 6.19 21.03 13.61 19.55"/><polyline class="cls-1" points="24 25.48 18.81 32.9 14.43 31.44"/></g><path class="cls-1" d="M29,19.55l4.47-4.47,2.28-2.28L31.6,8.68a3.51,3.51,0,0,1-1.85,3,3.4,3.4,0,0,1-3.2,0A3.5,3.5,0,0,1,28,5.12L23.92,1,19.81,5.12a3.52,3.52,0,0,0-2-3.1,3.34,3.34,0,0,0-2.49-.19,3.5,3.5,0,0,0,.91,6.85L12.13,12.8l6.68,6.68"/></g></g></g></svg>