<svg xmlns="http://www.w3.org/2000/svg" viewBox="0 0 48 48"><defs><style>.cls-1{fill:none;stroke:#000;stroke-linecap:round;stroke-linejoin:round;stroke-width:2px;}</style></defs><title>Asset 2</title><g id="Layer_2" data-name="Layer 2"><g id="Layer_1-2" data-name="Layer 1"><g id="back_to_school" data-name="back to school"><path class="cls-1" d="M47,39.21h0a1.85,1.85,0,0,1-1.85,1.85H8.94a7.42,7.42,0,0,1-4.83-1.79L1.68,37.19A1.93,1.93,0,0,1,1,35.72H1a1.93,1.93,0,0,1,3.22-1.44l2.2,2a4.45,4.45,0,0,0,3,1.12H45.15A1.85,1.85,0,0,1,47,39.21Z"/><circle class="cls-1" cx="13.61" cy="44.03" r="2.97"/><circle class="cls-1" cx="38.84" cy="44.03" r="2.97"/><path class="cls-1" d="M41.4,37.35H16.58a3.71,3.71,0,0,1-3.71-3.71V32.9a3.71,3.71,0,0,1,3.71-3.71H41.4A6.43,6.43,0,0,0,41.4,37.35Z"/><path class="cls-1" d="M37.86,29.19H10.65a3.71,3.71,0,0,1-3.71-3.71v-.74A3.71,3.71,0,0,1,10.65,21H37.86A6.2,6.2,0,0,0,37.86,29.19Z"/><line class="cls-1" x1="1" y1="4.71" x2="8.42" y2="4.71"/><line class="cls-1" x1="6.19" y1="9.16" x2="9.9" y2="9.16"/><g id="apple"><path class="cls-1" d="M20.52,1c2.74.9,2.74,4.17,2.74,4.17.69-.69,3.07-.88,3.91-.78a6.65,6.65,0,0,1,4.47,2.75c2.13,3.11.92,7-1.12,9.92a18.92,18.92,0,0,1-1.68,2.2,9,9,0,0,1-2.24,1.65c-.81.41-3.35-.46-3.35-.46s-2.54.88-3.35.47a9,9,0,0,1-2.24-1.65A18.92,18.92,0,0,1,16,17.07c-2-2.88-3.25-6.81-1.12-9.92A6.65,6.65,0,0,1,19.35,4.4"/><path class="cls-1" d="M25.48,7.68c-.74.74-3.71.74-4.45,0"/></g></g></g></g></svg>